<svg xmlns="http://www.w3.org/2000/svg" xmlns:xlink="http://www.w3.org/1999/xlink" width="837" height="300" version="1.1"><defs><clipPath id="highcharts-8"><rect width="9999" height="300" x="0" y="0" fill="none" stroke-width="0" rx="0" ry="0"/></clipPath><clipPath id="highcharts-9"><rect width="767" height="197" x="0" y="0" fill="none"/></clipPath></defs><rect width="837" height="300" x="0" y="0" fill="#FFF" stroke-width="0" rx="5" ry="5"/><g class="highcharts-grid"><path fill="none" stroke="silver" stroke-width="1" d="M 60 198.5 L 827 198.5"/><path fill="none" stroke="silver" stroke-width="1" d="M 60 158.5 L 827 158.5"/><path fill="none" stroke="silver" stroke-width="1" d="M 60 119.5 L 827 119.5"/><path fill="none" stroke="silver" stroke-width="1" d="M 60 79.5 L 827 79.5"/><path fill="none" stroke="silver" stroke-width="1" d="M 60 40.5 L 827 40.5"/><path fill="none" stroke="silver" stroke-width="1" d="M 60 237.5 L 827 237.5"/></g><g class="highcharts-axis"><path fill="none" stroke="#C0D0E0" stroke-width="1" d="M 187.5 237 L 187.5 242"/><path fill="none" stroke="#C0D0E0" stroke-width="1" d="M 251.5 237 L 251.5 242"/><path fill="none" stroke="#C0D0E0" stroke-width="1" d="M 315.5 237 L 315.5 242"/><path fill="none" stroke="#C0D0E0" stroke-width="1" d="M 379.5 237 L 379.5 242"/><path fill="none" stroke="#C0D0E0" stroke-width="1" d="M 442.5 237 L 442.5 242"/><path fill="none" stroke="#C0D0E0" stroke-width="1" d="M 506.5 237 L 506.5 242"/><path fill="none" stroke="#C0D0E0" stroke-width="1" d="M 570.5 237 L 570.5 242"/><path fill="none" stroke="#C0D0E0" stroke-width="1" d="M 634.5 237 L 634.5 242"/><path fill="none" stroke="#C0D0E0" stroke-width="1" d="M 698.5 237 L 698.5 242"/><path fill="none" stroke="#C0D0E0" stroke-width="1" d="M 762.5 237 L 762.5 242"/><path fill="none" stroke="#C0D0E0" stroke-width="1" d="M 826.5 237 L 826.5 242"/><path fill="none" stroke="#C0D0E0" stroke-width="1" d="M 123.5 237 L 123.5 242"/><path fill="none" stroke="#C0D0E0" stroke-width="1" d="M 60 237.5 L 827 237.5" visibility="visible"/></g><g class="highcharts-axis"><text x="24" y="138.5" text-anchor="middle" transform="rotate(270 24 138)" visibility="visible" style="font-family:'lucida grande','lucida sans unicode',verdana,arial,helvetica,sans-serif;font-size:12px;color:#6d869f;font-weight:700;fill:#6d869f"><tspan x="24">Y-values</tspan></text></g><g class="highcharts-series-group"><g class="highcharts-series" clip-path="url(#highcharts-9)" transform="translate(60,40)" visibility="visible"><path fill="none" stroke="#000" stroke-opacity=".05" stroke-width="5" d="M 31.958333333333332 173.4 L 95.875 140.7 L 159.79166666666666 113.2 L 223.70833333333334 95.2 L 287.625 83.5 L 351.54166666666663 58.3 L 415.4583333333333 90.1 L 479.37499999999994 80 L 543.2916666666666 26.5 L 607.2083333333334 44 L 671.125 121.7 L 735.0416666666666 154.1" transform="translate(1, 1)"/><path fill="none" stroke="#000" stroke-opacity=".1" stroke-width="3" d="M 31.958333333333332 173.4 L 95.875 140.7 L 159.79166666666666 113.2 L 223.70833333333334 95.2 L 287.625 83.5 L 351.54166666666663 58.3 L 415.4583333333333 90.1 L 479.37499999999994 80 L 543.2916666666666 26.5 L 607.2083333333334 44 L 671.125 121.7 L 735.0416666666666 154.1" transform="translate(1, 1)"/><path fill="none" stroke="#000" stroke-opacity=".15" stroke-width="1" d="M 31.958333333333332 173.4 L 95.875 140.7 L 159.79166666666666 113.2 L 223.70833333333334 95.2 L 287.625 83.5 L 351.54166666666663 58.3 L 415.4583333333333 90.1 L 479.37499999999994 80 L 543.2916666666666 26.5 L 607.2083333333334 44 L 671.125 121.7 L 735.0416666666666 154.1" transform="translate(1, 1)"/><path fill="none" stroke="#4572A7" stroke-width="2" d="M 31.958333333333332 173.4 L 95.875 140.7 L 159.79166666666666 113.2 L 223.70833333333334 95.2 L 287.625 83.5 L 351.54166666666663 58.3 L 415.4583333333333 90.1 L 479.37499999999994 80 L 543.2916666666666 26.5 L 607.2083333333334 44 L 671.125 121.7 L 735.0416666666666 154.1"/></g><g class="highcharts-markers" clip-path="none" visibility="visible"><path fill="#4572A7" stroke="#FFF" stroke-width="0" d="M 735.0416666666666 150.1 C 740.3696666666666 150.1 740.3696666666666 158.1 735.0416666666666 158.1 C 729.7136666666667 158.1 729.7136666666667 150.1 735.0416666666666 150.1 Z" transform="translate(60,40)"/><path fill="#4572A7" stroke="#FFF" stroke-width="0" d="M 671.125 117.7 C 676.453 117.7 676.453 125.7 671.125 125.7 C 665.797 125.7 665.797 117.7 671.125 117.7 Z" transform="translate(60,40)"/><path fill="#4572A7" stroke="#FFF" stroke-width="0" d="M 607.2083333333334 40 C 612.5363333333333 40 612.5363333333333 48 607.2083333333334 48 C 601.8803333333334 48 601.8803333333334 40 607.2083333333334 40 Z" transform="translate(60,40)"/><path fill="#4572A7" stroke="#FFF" stroke-width="0" d="M 543.2916666666666 22.5 C 548.6196666666666 22.5 548.6196666666666 30.5 543.2916666666666 30.5 C 537.9636666666667 30.5 537.9636666666667 22.5 543.2916666666666 22.5 Z" transform="translate(60,40)"/><path fill="#4572A7" stroke="#FFF" stroke-width="0" d="M 479.37499999999994 76 C 484.7029999999999 76 484.7029999999999 84 479.37499999999994 84 C 474.04699999999997 84 474.04699999999997 76 479.37499999999994 76 Z" transform="translate(60,40)"/><path fill="#4572A7" stroke="#FFF" stroke-width="0" d="M 415.4583333333333 86.1 C 420.7863333333333 86.1 420.7863333333333 94.1 415.4583333333333 94.1 C 410.13033333333334 94.1 410.13033333333334 86.1 415.4583333333333 86.1 Z" transform="translate(60,40)"/><path fill="#4572A7" stroke="#FFF" stroke-width="0" d="M 351.54166666666663 54.3 C 356.8696666666666 54.3 356.8696666666666 62.3 351.54166666666663 62.3 C 346.21366666666665 62.3 346.21366666666665 54.3 351.54166666666663 54.3 Z" transform="translate(60,40)"/><path fill="#4572A7" stroke="#FFF" stroke-width="0" d="M 287.625 79.5 C 292.953 79.5 292.953 87.5 287.625 87.5 C 282.297 87.5 282.297 79.5 287.625 79.5 Z" transform="translate(60,40)"/><path fill="#4572A7" stroke="#FFF" stroke-width="0" d="M 223.70833333333334 91.2 C 229.03633333333335 91.2 229.03633333333335 99.2 223.70833333333334 99.2 C 218.38033333333334 99.2 218.38033333333334 91.2 223.70833333333334 91.2 Z" transform="translate(60,40)"/><path fill="#4572A7" stroke="#FFF" stroke-width="0" d="M 159.79166666666666 109.2 C 165.11966666666666 109.2 165.11966666666666 117.2 159.79166666666666 117.2 C 154.46366666666665 117.2 154.46366666666665 109.2 159.79166666666666 109.2 Z" transform="translate(60,40)"/><path fill="#4572A7" stroke="#FFF" stroke-width="0" d="M 95.875 136.7 C 101.203 136.7 101.203 144.7 95.875 144.7 C 90.547 144.7 90.547 136.7 95.875 136.7 Z" transform="translate(60,40)"/><path fill="#4572A7" stroke="#FFF" stroke-width="0" d="M 31.958333333333332 169.4 C 37.28633333333333 169.4 37.28633333333333 177.4 31.958333333333332 177.4 C 26.630333333333333 177.4 26.630333333333333 169.4 31.958333333333332 169.4 Z" transform="translate(60,40)"/></g></g><text x="419" y="25" class="highcharts-title" text-anchor="middle" style="font-family:'lucida grande','lucida sans unicode',verdana,arial,helvetica,sans-serif;font-size:16px;color:#3e576f;fill:#3e576f"><tspan x="419">Chart title</tspan></text><g class="highcharts-legend" transform="translate(378,260)"><rect width="81" height="24" x=".5" y=".5" fill="none" stroke="#909090" stroke-width="1" rx="5" ry="5" visibility="visible"/><g clip-path="url(#highcharts-8)"><g><g class="highcharts-legend-item"><path fill="none" stroke="#4572A7" stroke-width="2" d="M 0 11 L 16 11" transform="translate(8,3)"/><path fill="#4572A7" stroke="#FFF" stroke-width="0" d="M 8 7 C 13.328 7 13.328 15 8 15 C 2.6719999999999997 15 2.6719999999999997 7 8 7 Z" transform="translate(8,3)"/><text x="21" y="15" text-anchor="start" transform="translate(8,3)" style="font-family:'lucida grande','lucida sans unicode',verdana,arial,helvetica,sans-serif;font-size:12px;cursor:pointer;color:#3e576f;fill:#3e576f"><tspan x="21">Series 1</tspan></text></g></g></g></g><g class="highcharts-axis-labels"><text x="91.958" y="251" text-anchor="middle" visibility="visible" style="font-family:'lucida grande','lucida sans unicode',verdana,arial,helvetica,sans-serif;font-size:11px;width:44px;color:#666;line-height:14px;fill:#666"><tspan x="91.958">Jan</tspan></text><text x="155.875" y="251" text-anchor="middle" visibility="visible" style="font-family:'lucida grande','lucida sans unicode',verdana,arial,helvetica,sans-serif;font-size:11px;width:44px;color:#666;line-height:14px;fill:#666"><tspan x="155.875">Feb</tspan></text><text x="219.792" y="251" text-anchor="middle" visibility="visible" style="font-family:'lucida grande','lucida sans unicode',verdana,arial,helvetica,sans-serif;font-size:11px;width:44px;color:#666;line-height:14px;fill:#666"><tspan x="219.792">Mar</tspan></text><text x="283.708" y="251" text-anchor="middle" visibility="visible" style="font-family:'lucida grande','lucida sans unicode',verdana,arial,helvetica,sans-serif;font-size:11px;width:44px;color:#666;line-height:14px;fill:#666"><tspan x="283.708">Apr</tspan></text><text x="347.625" y="251" text-anchor="middle" visibility="visible" style="font-family:'lucida grande','lucida sans unicode',verdana,arial,helvetica,sans-serif;font-size:11px;width:44px;color:#666;line-height:14px;fill:#666"><tspan x="347.625">May</tspan></text><text x="411.542" y="251" text-anchor="middle" visibility="visible" style="font-family:'lucida grande','lucida sans unicode',verdana,arial,helvetica,sans-serif;font-size:11px;width:44px;color:#666;line-height:14px;fill:#666"><tspan x="411.542">Jun</tspan></text><text x="475.458" y="251" text-anchor="middle" visibility="visible" style="font-family:'lucida grande','lucida sans unicode',verdana,arial,helvetica,sans-serif;font-size:11px;width:44px;color:#666;line-height:14px;fill:#666"><tspan x="475.458">Jul</tspan></text><text x="539.375" y="251" text-anchor="middle" visibility="visible" style="font-family:'lucida grande','lucida sans unicode',verdana,arial,helvetica,sans-serif;font-size:11px;width:44px;color:#666;line-height:14px;fill:#666"><tspan x="539.375">Aug</tspan></text><text x="603.292" y="251" text-anchor="middle" visibility="visible" style="font-family:'lucida grande','lucida sans unicode',verdana,arial,helvetica,sans-serif;font-size:11px;width:44px;color:#666;line-height:14px;fill:#666"><tspan x="603.292">Sep</tspan></text><text x="667.208" y="251" text-anchor="middle" visibility="visible" style="font-family:'lucida grande','lucida sans unicode',verdana,arial,helvetica,sans-serif;font-size:11px;width:44px;color:#666;line-height:14px;fill:#666"><tspan x="667.208">Oct</tspan></text><text x="731.125" y="251" text-anchor="middle" visibility="visible" style="font-family:'lucida grande','lucida sans unicode',verdana,arial,helvetica,sans-serif;font-size:11px;width:44px;color:#666;line-height:14px;fill:#666"><tspan x="731.125">Nov</tspan></text><text x="795.042" y="251" text-anchor="middle" visibility="visible" style="font-family:'lucida grande','lucida sans unicode',verdana,arial,helvetica,sans-serif;font-size:11px;width:44px;color:#666;line-height:14px;fill:#666"><tspan x="795.042">Dec</tspan></text></g><g class="highcharts-axis-labels"><text x="52" y="243.1" text-anchor="end" visibility="visible" style="font-family:'lucida grande','lucida sans unicode',verdana,arial,helvetica,sans-serif;font-size:11px;width:364px;color:#666;line-height:14px;fill:#666"><tspan x="52">0</tspan></text><text x="52" y="203.7" text-anchor="end" visibility="visible" style="font-family:'lucida grande','lucida sans unicode',verdana,arial,helvetica,sans-serif;font-size:11px;width:364px;color:#666;line-height:14px;fill:#666"><tspan x="52">50</tspan></text><text x="52" y="164.3" text-anchor="end" visibility="visible" style="font-family:'lucida grande','lucida sans unicode',verdana,arial,helvetica,sans-serif;font-size:11px;width:364px;color:#666;line-height:14px;fill:#666"><tspan x="52">100</tspan></text><text x="52" y="124.9" text-anchor="end" visibility="visible" style="font-family:'lucida grande','lucida sans unicode',verdana,arial,helvetica,sans-serif;font-size:11px;width:364px;color:#666;line-height:14px;fill:#666"><tspan x="52">150</tspan></text><text x="52" y="85.5" text-anchor="end" visibility="visible" style="font-family:'lucida grande','lucida sans unicode',verdana,arial,helvetica,sans-serif;font-size:11px;width:364px;color:#666;line-height:14px;fill:#666"><tspan x="52">200</tspan></text><text x="52" y="46.1" text-anchor="end" visibility="visible" style="font-family:'lucida grande','lucida sans unicode',verdana,arial,helvetica,sans-serif;font-size:11px;width:364px;color:#666;line-height:14px;fill:#666"><tspan x="52">250</tspan></text></g><g class="highcharts-tooltip" visibility="hidden" style="padding:0;white-space:nowrap"><rect width="10" height="10" x="0" y="0" fill="none" fill-opacity=".85" stroke="#000" stroke-opacity=".05" stroke-width="5" rx="5" ry="5" transform="translate(1, 1)"/><rect width="10" height="10" x="0" y="0" fill="none" fill-opacity=".85" stroke="#000" stroke-opacity=".1" stroke-width="3" rx="5" ry="5" transform="translate(1, 1)"/><rect width="10" height="10" x="0" y="0" fill="none" fill-opacity=".85" stroke="#000" stroke-opacity=".15" stroke-width="1" rx="5" ry="5" transform="translate(1, 1)"/><rect width="10" height="10" x="0" y="0" fill="#FFF" fill-opacity=".85" stroke-width="2" rx="5" ry="5"/></g><text x="827" y="295" text-anchor="end" style="font-family:'lucida grande','lucida sans unicode',verdana,arial,helvetica,sans-serif;font-size:10px;cursor:pointer;color:#909090;fill:#909090"><tspan x="827">Highcharts.com</tspan></text><g class="highcharts-tracker"><g clip-path="url(#highcharts-9)" transform="translate(60,40)" visibility="visible"><path fill="none" stroke="silver" stroke-linejoin="bevel" stroke-opacity="0" stroke-width="22" d="M 21.958333333333332 173.4 L 31.958333333333332 173.4 L 95.875 140.7 L 159.79166666666666 113.2 L 223.70833333333334 95.2 L 287.625 83.5 L 351.54166666666663 58.3 L 415.4583333333333 90.1 L 479.37499999999994 80 L 543.2916666666666 26.5 L 607.2083333333334 44 L 671.125 121.7 L 735.0416666666666 154.1 L 745.0416666666666 154.1" visibility="visible"/></g></g></svg>