<svg xmlns="http://www.w3.org/2000/svg" xmlns:xlink="http://www.w3.org/1999/xlink" id="Layer_1" width="32" height="32" x="0" y="0" enable-background="new 0 0 32 32" version="1.1" viewBox="0 0 32 32" xml:space="preserve"><g><rect width="1.5" height="10" x="12.75" y="14" fill="#4B4B4D"/><rect width="1.5" height="10" x="17.75" y="14" fill="#4B4B4D"/><path fill="#4B4B4D" d="M25.25,10.5c0-1.517-1.233-2.75-2.75-2.75h-3.25V7c0-1.24-1.01-2.25-2.25-2.25h-2 c-1.24,0-2.25,1.01-2.25,2.25v0.75H9.5c-1.517,0-2.75,1.233-2.75,2.75v1.751h2V27.25h14.5V12.251h2V10.5z M14.25,7 c0-0.413,0.337-0.75,0.75-0.75h2c0.413,0,0.75,0.337,0.75,0.75v0.75h-3.5V7z M21.75,25.75h-11.5V12.251h11.5V25.75z M23.75,10.751 H8.25V10.5c0-0.689,0.561-1.25,1.25-1.25h13c0.689,0,1.25,0.561,1.25,1.25V10.751z"/></g></svg>