<svg xmlns="http://www.w3.org/2000/svg" xmlns:xlink="http://www.w3.org/1999/xlink" id="Layer_1" width="32" height="32" x="0" y="0" enable-background="new 0 0 32 32" version="1.1" viewBox="0 0 32 32" xml:space="preserve"><g><rect width="3" height="1.5" x="19.5" y="19.75" fill="#4B4B4D"/><rect width="3" height="1.5" x="24.5" y="19.75" fill="#4B4B4D"/><rect width="3" height="1.5" x="9.5" y="19.75" fill="#4B4B4D"/><rect width="3" height="1.5" x="14.5" y="19.75" fill="#4B4B4D"/><rect width="3" height="1.5" x="4.5" y="19.75" fill="#4B4B4D"/><rect width="3" height="1.5" x="19.5" y="15.75" fill="#4B4B4D"/><rect width="3" height="1.5" x="24.5" y="15.75" fill="#4B4B4D"/><rect width="3" height="1.5" x="9.5" y="15.75" fill="#4B4B4D"/><rect width="3" height="1.5" x="14.5" y="15.75" fill="#4B4B4D"/><rect width="3" height="1.5" x="4.5" y="15.75" fill="#4B4B4D"/><rect width="3" height="1.5" x="19.5" y="10.75" fill="#4B4B4D"/><rect width="3" height="1.5" x="24.5" y="10.75" fill="#4B4B4D"/><rect width="3" height="1.5" x="9.5" y="10.75" fill="#4B4B4D"/><rect width="3" height="1.5" x="14.5" y="10.75" fill="#4B4B4D"/><rect width="3" height="1.5" x="4.5" y="10.75" fill="#4B4B4D"/><rect width="24" height="1.5" x="4" y="4.75" fill="#4B4B4D"/><rect width="24" height="1.5" x="4" y="25.75" fill="#4B4B4D"/></g></svg>