<svg xmlns="http://www.w3.org/2000/svg" xmlns:xlink="http://www.w3.org/1999/xlink" id="Layer_1" width="32" height="32" x="0" y="0" enable-background="new 0 0 32 32" version="1.1" viewBox="0 0 32 32" xml:space="preserve"><path fill="#4B4B4D" d="M27.03,6.03L25.97,4.97l-3.788,3.788c-0.212-0.083-0.44-0.133-0.682-0.133c-1.035,0-1.875,0.84-1.875,1.875	c0,0.241,0.05,0.47,0.133,0.682l-8.576,8.576c-0.212-0.083-0.44-0.133-0.682-0.133c-1.035,0-1.875,0.84-1.875,1.875	c0,0.241,0.05,0.47,0.133,0.682L4.97,25.97L6.03,27.03l3.788-3.788c0.212,0.083,0.44,0.133,0.682,0.133	c1.035,0,1.875-0.84,1.875-1.875c0-0.241-0.05-0.47-0.133-0.682l8.576-8.576c0.212,0.083,0.44,0.133,0.682,0.133	c1.035,0,1.875-0.84,1.875-1.875c0-0.241-0.05-0.47-0.133-0.682L27.03,6.03z"/></svg>