<svg xmlns="http://www.w3.org/2000/svg" xmlns:xlink="http://www.w3.org/1999/xlink" id="Layer_1" width="32" height="32" x="0" y="0" enable-background="new 0 0 32 32" version="1.1" viewBox="0 0 32 32" xml:space="preserve"><g><g><polygon fill="#4B4B4D" points="14.673 21 15.984 19.177 17.287 21 18.808 21 16.766 18.344 18.559 16 17.12 16 16.006 17.553 14.923 16 13.422 16 15.225 18.344 13.193 21"/><rect width="1.5" height="2.986" x="25.75" y="9.014" fill="#4B4B4D"/><rect width="1.5" height="2.986" x="25.75" y="24.014" fill="#4B4B4D"/><rect width="1.5" height="2.986" x="25.75" y="14.014" fill="#4B4B4D"/><rect width="1.5" height="2.986" x="25.75" y="19.014" fill="#4B4B4D"/><rect width="1.5" height="2.986" x="4.75" y="9.014" fill="#4B4B4D"/><rect width="1.5" height="2.986" x="4.75" y="4.014" fill="#4B4B4D"/><rect width="1.5" height="2.986" x="4.75" y="19.014" fill="#4B4B4D"/><rect width="1.5" height="2.986" x="4.75" y="14.014" fill="#4B4B4D"/><rect width="1.5" height="3" x="25.75" y="4" fill="#4B4B4D"/><rect width="1.5" height="2.986" x="4.75" y="24" fill="#4B4B4D"/><polygon fill="#4B4B4D" points="24.465 13.5 21 11.5 21 13 11 13 11 11.5 7.535 13.5 11 15.5 11 14 21 14 21 15.5"/></g></g></svg>