<svg xmlns="http://www.w3.org/2000/svg" xmlns:xlink="http://www.w3.org/1999/xlink" id="Layer_1" width="32" height="32" x="0" y="0" enable-background="new 0 0 32 32" version="1.1" viewBox="0 0 32 32" xml:space="preserve"><path fill="#4B4B4D" d="M24.5,5.625c-1.035,0-1.875,0.84-1.875,1.875c0,0.241,0.05,0.47,0.133,0.682L8.182,22.758	c-0.212-0.083-0.44-0.133-0.682-0.133c-1.035,0-1.875,0.84-1.875,1.875s0.84,1.875,1.875,1.875s1.875-0.84,1.875-1.875	c0-0.241-0.05-0.47-0.133-0.682L23.818,9.242c0.212,0.083,0.44,0.133,0.682,0.133c1.035,0,1.875-0.84,1.875-1.875	S25.535,5.625,24.5,5.625z"/></svg>