<svg xmlns="http://www.w3.org/2000/svg" xmlns:xlink="http://www.w3.org/1999/xlink" id="Layer_1" width="32" height="32" x="0" y="0" enable-background="new 0 0 32 32" version="1.1" viewBox="0 0 32 32" xml:space="preserve"><g><path fill="#4B4B4D" d="M26.083,24.917l-5.556-5.555c1.075-1.331,1.723-3.021,1.723-4.861c0-4.273-3.477-7.75-7.75-7.75 s-7.75,3.477-7.75,7.75s3.477,7.75,7.75,7.75c1.84,0,3.53-0.647,4.861-1.723l5.556,5.555L26.083,24.917z M8.25,14.501 c0-3.446,2.804-6.25,6.25-6.25s6.25,2.804,6.25,6.25s-2.804,6.25-6.25,6.25S8.25,17.947,8.25,14.501z"/><polygon fill="#4B4B4D" points="15.25 11 13.75 11 13.75 13.75 11 13.75 11 15.25 13.75 15.25 13.75 18 15.25 18 15.25 15.25 18 15.25 18 13.75 15.25 13.75"/></g></svg>