<svg xmlns="http://www.w3.org/2000/svg" xmlns:xlink="http://www.w3.org/1999/xlink" id="Layer_1" x="0" y="0" version="1.1" viewBox="0 0 43 43" xml:space="preserve" style="enable-background:new 0 0 43 43"><style type="text/css">.st0{fill:none;stroke:#666;stroke-width:2;stroke-miterlimit:10}</style><path d="M8,2C4.7,2,2,4.7,2,8V35c0,3.3,2.7,6,6,6H35c3.3,0,6-2.7,6-6V8c0-3.3-2.7-6-6-6H8z" class="st0"/><g><path d="M29,14H14v18.7c0,0.7,0.6,1.3,1.3,1.3h12.4c0.7,0,1.3-0.6,1.3-1.3V14z" class="st0"/><line x1="19" x2="19" y1="17" y2="31" class="st0"/><line x1="24" x2="24" y1="17" y2="31" class="st0"/><line x1="11" x2="32" y1="14" y2="14" class="st0"/><rect width="5" height="4" x="19" y="10" class="st0"/></g></svg>